<svg height="24px" width="24px" xmlns="http://www.w3.org/2000/svg" viewBox="0 0 169.675 171.911">
  <g id="Group_27724" data-name="Group 27724" transform="translate(-103.347 -279.981)">
    <path id="Path_2933" data-name="Path 2933" d="M271.257,440.892l-24.226-25.16a6.521,6.521,0,1,0-9.394,9.047l24.224,25.161a6.481,6.481,0,0,0,4.6,1.952h.059a6.479,6.479,0,0,0,4.569-1.87A6.558,6.558,0,0,0,271.257,440.892Z" />
    <path id="Path_2934" data-name="Path 2934" d="M179.338,279.981h0a75.99,75.99,0,1,0,75.99,75.989A76.076,76.076,0,0,0,179.337,279.981Zm0,13.047a62.944,62.944,0,0,1,.637,125.884h-.637a62.942,62.942,0,1,1,0-125.884Z"/>
  </g>
</svg>
