<svg width="25" height="29" viewBox="0 0 25 29" fill="none" xmlns="http://www.w3.org/2000/svg">
<g filter="url(#filter0_d_1329_84)">
<path d="M4.5 4.5H6.05848C6.7542 4.5 7.10206 4.5 7.36395 4.68876C7.62584 4.87752 7.73584 5.20753 7.95585 5.86754L8.5 7.5" stroke="#5F4A32" stroke-linecap="round"/>
<path d="M18.5 17.5H9.05091C8.90471 17.5 8.83162 17.5 8.77616 17.4938C8.18857 17.428 7.78605 16.8695 7.90945 16.2913C7.92109 16.2367 7.94421 16.1674 7.99044 16.0287V16.0287C8.04177 15.8747 8.06743 15.7977 8.09579 15.7298C8.38607 15.0342 9.04277 14.5608 9.79448 14.5054C9.8679 14.5 9.94906 14.5 10.1114 14.5H15.5" stroke="#5F4A32" stroke-linecap="round" stroke-linejoin="round"/>
<path d="M15.1787 14.5H12.1376C10.8584 14.5 10.2188 14.5 9.71781 14.1697C9.21687 13.8394 8.96492 13.2515 8.461 12.0757L8.29218 11.6818C7.48269 9.79294 7.07794 8.84853 7.52255 8.17426C7.96715 7.5 8.99464 7.5 11.0496 7.5H16.3305C18.6295 7.5 19.779 7.5 20.2126 8.24711C20.6462 8.99422 20.0758 9.99229 18.9352 11.9884L18.6517 12.4846C18.0897 13.4679 17.8088 13.9596 17.3432 14.2298C16.8776 14.5 16.3113 14.5 15.1787 14.5Z" stroke="#5F4A32" stroke-linecap="round"/>
<circle cx="18" cy="20" r="1" fill="#5F4A32"/>
<circle cx="10" cy="20" r="1" fill="#5F4A32"/>
</g>
<defs>
<filter id="filter0_d_1329_84" x="-3" y="0" width="32" height="32" filterUnits="userSpaceOnUse" color-interpolation-filters="sRGB">
<feFlood flood-opacity="0" result="BackgroundImageFix"/>
<feColorMatrix in="SourceAlpha" type="matrix" values="0 0 0 0 0 0 0 0 0 0 0 0 0 0 0 0 0 0 127 0" result="hardAlpha"/>
<feOffset dy="4"/>
<feGaussianBlur stdDeviation="2"/>
<feComposite in2="hardAlpha" operator="out"/>
<feColorMatrix type="matrix" values="0 0 0 0 0 0 0 0 0 0 0 0 0 0 0 0 0 0 0.25 0"/>
<feBlend mode="normal" in2="BackgroundImageFix" result="effect1_dropShadow_1329_84"/>
<feBlend mode="normal" in="SourceGraphic" in2="effect1_dropShadow_1329_84" result="shape"/>
</filter>
</defs>
</svg>
