<svg width="28" height="30" viewBox="0 0 28 30" fill="none" xmlns="http://www.w3.org/2000/svg">
<g filter="url(#filter0_d_1329_82)">
<path d="M6.45067 13.9082L13.4033 20.4395C13.6428 20.6644 13.7625 20.7769 13.9037 20.8046C13.9673 20.8171 14.0327 20.8171 14.0963 20.8046C14.2375 20.7769 14.3572 20.6644 14.5967 20.4395L21.5493 13.9082C23.5055 12.0706 23.743 9.0466 22.0978 6.92607L21.7885 6.52734C19.8203 3.99058 15.8696 4.41601 14.4867 7.31365C14.2913 7.72296 13.7087 7.72296 13.5133 7.31365C12.1304 4.41601 8.17972 3.99058 6.21154 6.52735L5.90219 6.92607C4.25695 9.0466 4.4945 12.0706 6.45067 13.9082Z" stroke="#5F4A32"/>
</g>
<defs>
<filter id="filter0_d_1329_82" x="-2" y="0" width="32" height="32" filterUnits="userSpaceOnUse" color-interpolation-filters="sRGB">
<feFlood flood-opacity="0" result="BackgroundImageFix"/>
<feColorMatrix in="SourceAlpha" type="matrix" values="0 0 0 0 0 0 0 0 0 0 0 0 0 0 0 0 0 0 127 0" result="hardAlpha"/>
<feOffset dy="4"/>
<feGaussianBlur stdDeviation="2"/>
<feComposite in2="hardAlpha" operator="out"/>
<feColorMatrix type="matrix" values="0 0 0 0 0 0 0 0 0 0 0 0 0 0 0 0 0 0 0.25 0"/>
<feBlend mode="normal" in2="BackgroundImageFix" result="effect1_dropShadow_1329_82"/>
<feBlend mode="normal" in="SourceGraphic" in2="effect1_dropShadow_1329_82" result="shape"/>
</filter>
</defs>
</svg>
